<svg width="1540" height="332" viewBox="0 0 1540 332" fill="none" xmlns="http://www.w3.org/2000/svg">
<path fill-rule="evenodd" clip-rule="evenodd" d="M75.1704 282.2C166.85 282.2 241.17 207.879 241.17 116.2C241.17 72.2872 224.119 32.3567 196.277 2.66846C273.732 16.7102 332.472 84.4955 332.472 166C332.472 257.679 258.151 332 166.472 332C118.706 332 75.6517 311.825 45.3659 279.532C55.035 281.285 64.9958 282.2 75.1704 282.2Z" fill="#00AA81"/>
<path fill-rule="evenodd" clip-rule="evenodd" d="M287.579 279.531C277.909 281.284 267.947 282.2 257.772 282.2C166.093 282.2 91.772 207.879 91.772 116.2C91.772 72.2872 108.823 32.3569 136.665 2.6687C59.2107 16.7113 0.47197 84.4961 0.47197 166C0.47197 257.679 74.7927 332 166.472 332C214.238 332 257.293 311.825 287.579 279.531Z" fill="#00CC9A"/>
<path fill-rule="evenodd" clip-rule="evenodd" d="M324.431 217.183C329.651 201.062 332.472 183.86 332.472 166C332.472 74.3207 258.151 0 166.472 0C74.7927 0 0.47197 74.3207 0.47197 166C0.47197 183.86 3.29259 201.062 8.51268 217.183C30.088 150.551 92.653 102.367 166.472 102.367C240.291 102.367 302.856 150.551 324.431 217.183Z" fill="#00FFC1"/>
<path d="M617.328 120.848L581.472 243.467H548.051L525.696 157.811L503.341 243.467H469.699L433.621 120.848H465.051L486.741 214.251L510.203 120.848H542.96L565.979 214.029L587.669 120.848H617.328Z" fill="#0C0C0C"/>
<path d="M662.867 139.883C666.851 133.39 672.016 128.3 678.361 124.611C684.853 120.922 692.231 119.077 700.494 119.077V151.613H692.305C682.566 151.613 675.188 153.901 670.171 158.475C665.302 163.049 662.867 171.017 662.867 182.379V243.467H631.881V120.848H662.867V139.883Z" fill="#0C0C0C"/>
<path d="M734.866 106.24C729.407 106.24 724.833 104.543 721.144 101.149C717.602 97.6081 715.832 93.2552 715.832 88.0907C715.832 82.9263 717.602 78.6472 721.144 75.2534C724.833 71.7121 729.407 69.9414 734.866 69.9414C740.326 69.9414 744.826 71.7121 748.368 75.2534C752.057 78.6472 753.901 82.9263 753.901 88.0907C753.901 93.2552 752.057 97.6081 748.368 101.149C744.826 104.543 740.326 106.24 734.866 106.24ZM750.138 120.848V243.467H719.152V120.848H750.138Z" fill="#0C0C0C"/>
<path d="M825.463 245.459C815.429 245.459 806.428 243.688 798.46 240.147C790.492 236.458 784.147 231.515 779.425 225.317C774.851 219.12 772.343 212.259 771.9 204.733H803.108C803.698 209.455 805.985 213.365 809.969 216.464C814.101 219.563 819.191 221.112 825.241 221.112C831.143 221.112 835.718 219.932 838.964 217.571C842.358 215.21 844.055 212.185 844.055 208.496C844.055 204.512 841.989 201.561 837.857 199.643C833.873 197.577 827.455 195.364 818.601 193.003C809.453 190.789 801.927 188.502 796.025 186.141C790.271 183.781 785.254 180.165 780.975 175.296C776.843 170.427 774.777 163.861 774.777 155.597C774.777 148.81 776.695 142.613 780.532 137.005C784.516 131.398 790.123 126.972 797.353 123.725C804.731 120.479 813.363 118.856 823.249 118.856C837.857 118.856 849.514 122.545 858.22 129.923C866.926 137.153 871.721 146.965 872.607 159.36H842.948C842.505 154.491 840.439 150.654 836.751 147.851C833.209 144.9 828.414 143.424 822.364 143.424C816.757 143.424 812.404 144.457 809.305 146.523C806.354 148.589 804.879 151.466 804.879 155.155C804.879 159.286 806.944 162.459 811.076 164.672C815.207 166.738 821.626 168.877 830.332 171.091C839.185 173.304 846.489 175.591 852.244 177.952C857.999 180.313 862.942 184.002 867.073 189.019C871.352 193.888 873.566 200.381 873.713 208.496C873.713 215.579 871.721 221.924 867.737 227.531C863.901 233.138 858.294 237.565 850.916 240.811C843.686 243.909 835.201 245.459 825.463 245.459Z" fill="#0C0C0C"/>
<path d="M933.013 146.301V205.619C933.013 209.75 933.972 212.775 935.891 214.693C937.956 216.464 941.35 217.349 946.072 217.349H960.459V243.467H940.981C914.864 243.467 901.805 230.777 901.805 205.397V146.301H887.197V120.848H901.805V90.5254H933.013V120.848H960.459V146.301H933.013Z" fill="#0C0C0C"/>
<path d="M1011.52 138.776C1015.5 132.874 1020.96 128.078 1027.9 124.389C1034.98 120.701 1043.02 118.856 1052.02 118.856C1062.5 118.856 1071.94 121.438 1080.35 126.603C1088.91 131.767 1095.63 139.145 1100.5 148.736C1105.51 158.18 1108.02 169.173 1108.02 181.715C1108.02 194.257 1105.51 205.397 1100.5 215.136C1095.63 224.727 1088.91 232.179 1080.35 237.491C1071.94 242.803 1062.5 245.459 1052.02 245.459C1042.87 245.459 1034.83 243.688 1027.9 240.147C1021.11 236.458 1015.65 231.736 1011.52 225.981V243.467H980.533V79.6801H1011.52V138.776ZM1076.37 181.715C1076.37 174.337 1074.82 167.992 1071.72 162.68C1068.77 157.221 1064.79 153.089 1059.77 150.285C1054.9 147.482 1049.59 146.08 1043.83 146.08C1038.23 146.08 1032.91 147.556 1027.9 150.507C1023.03 153.31 1019.04 157.442 1015.95 162.901C1012.99 168.361 1011.52 174.78 1011.52 182.157C1011.52 189.535 1012.99 195.954 1015.95 201.413C1019.04 206.873 1023.03 211.078 1027.9 214.029C1032.91 216.833 1038.23 218.235 1043.83 218.235C1049.59 218.235 1054.9 216.759 1059.77 213.808C1064.79 210.857 1068.77 206.652 1071.72 201.192C1074.82 195.733 1076.37 189.24 1076.37 181.715Z" fill="#0C0C0C"/>
<path d="M1120.36 181.715C1120.36 169.32 1122.79 158.327 1127.66 148.736C1132.68 139.145 1139.39 131.767 1147.8 126.603C1156.36 121.438 1165.88 118.856 1176.35 118.856C1185.5 118.856 1193.47 120.701 1200.26 124.389C1207.19 128.078 1212.73 132.726 1216.86 138.333V120.848H1248.07V243.467H1216.86V225.539C1212.87 231.293 1207.34 236.089 1200.26 239.925C1193.32 243.614 1185.28 245.459 1176.13 245.459C1165.8 245.459 1156.36 242.803 1147.8 237.491C1139.39 232.179 1132.68 224.727 1127.66 215.136C1122.79 205.397 1120.36 194.257 1120.36 181.715ZM1216.86 182.157C1216.86 174.632 1215.38 168.213 1212.43 162.901C1209.48 157.442 1205.5 153.31 1200.48 150.507C1195.46 147.556 1190.08 146.08 1184.32 146.08C1178.57 146.08 1173.26 147.482 1168.39 150.285C1163.52 153.089 1159.53 157.221 1156.43 162.68C1153.48 167.992 1152.01 174.337 1152.01 181.715C1152.01 189.093 1153.48 195.585 1156.43 201.192C1159.53 206.652 1163.52 210.857 1168.39 213.808C1173.4 216.759 1178.71 218.235 1184.32 218.235C1190.08 218.235 1195.46 216.833 1200.48 214.029C1205.5 211.078 1209.48 206.947 1212.43 201.635C1215.38 196.175 1216.86 189.683 1216.86 182.157Z" fill="#0C0C0C"/>
<path d="M1344.07 119.077C1358.67 119.077 1370.48 123.725 1379.48 133.021C1388.48 142.17 1392.98 155.007 1392.98 171.533V243.467H1361.99V175.739C1361.99 166 1359.56 158.549 1354.69 153.384C1349.82 148.072 1343.18 145.416 1334.77 145.416C1326.21 145.416 1319.42 148.072 1314.41 153.384C1309.54 158.549 1307.1 166 1307.1 175.739V243.467H1276.12V120.848H1307.1V136.12C1311.23 130.808 1316.47 126.677 1322.82 123.725C1329.31 120.627 1336.39 119.077 1344.07 119.077Z" fill="#0C0C0C"/>
<path d="M1412.27 181.715C1412.27 169.32 1414.7 158.327 1419.57 148.736C1424.59 139.145 1431.37 131.767 1439.93 126.603C1448.49 121.438 1458.01 118.856 1468.48 118.856C1476.45 118.856 1484.05 120.627 1491.28 124.168C1498.51 127.562 1504.27 132.136 1508.55 137.891V79.6801H1539.97V243.467H1508.55V225.317C1504.71 231.367 1499.32 236.237 1492.39 239.925C1485.45 243.614 1477.41 245.459 1468.26 245.459C1457.93 245.459 1448.49 242.803 1439.93 237.491C1431.37 232.179 1424.59 224.727 1419.57 215.136C1414.7 205.397 1412.27 194.257 1412.27 181.715ZM1508.77 182.157C1508.77 174.632 1507.29 168.213 1504.34 162.901C1501.39 157.442 1497.41 153.31 1492.39 150.507C1487.37 147.556 1481.99 146.08 1476.23 146.08C1470.48 146.08 1465.16 147.482 1460.29 150.285C1455.43 153.089 1451.44 157.221 1448.34 162.68C1445.39 167.992 1443.92 174.337 1443.92 181.715C1443.92 189.093 1445.39 195.585 1448.34 201.192C1451.44 206.652 1455.43 210.857 1460.29 213.808C1465.31 216.759 1470.62 218.235 1476.23 218.235C1481.99 218.235 1487.37 216.833 1492.39 214.029C1497.41 211.078 1501.39 206.947 1504.34 201.635C1507.29 196.175 1508.77 189.683 1508.77 182.157Z" fill="#0C0C0C"/>
</svg>
